<svg xmlns="http://www.w3.org/2000/svg" width="600" height="400" viewBox="0 0 600 400"><rect width="100%" height="100%" fill="#DDDDDD"/><path fill="#999999" d="M227.05 168.935q0 3.58-1.2 6.57-1.19 2.99-3.35 5.16-2.16 2.16-5.2 3.35-3.03 1.19-6.75 1.19h-12.39v-32.53h12.39q3.72 0 6.75 1.2 3.04 1.2 5.2 3.35t3.35 5.14q1.2 3 1.2 6.57m-6.21 0q0-2.68-.71-4.8-.71-2.13-2.05-3.6t-3.24-2.26-4.29-.79h-6.32v22.91h6.32q2.39 0 4.29-.79t3.24-2.26q1.34-1.48 2.05-3.6.71-2.13.71-4.81m15.05 2.07h10.48q0-1.08-.3-2.03-.3-.96-.91-1.68t-1.54-1.14q-.94-.41-2.17-.41-2.41 0-3.79 1.37-1.39 1.37-1.77 3.89m14.17 3.36h-14.28q.13 1.77.63 3.07.49 1.29 1.3 2.13.81.85 1.92 1.26 1.12.42 2.47.42t2.33-.31q.98-.32 1.71-.7t1.28-.7q.55-.31 1.07-.31.7 0 1.03.51l1.6 2.03q-.92 1.08-2.07 1.81t-2.39 1.17q-1.25.44-2.55.62-1.29.18-2.51.18-2.4 0-4.47-.8t-3.6-2.36q-1.53-1.57-2.41-3.87-.88-2.31-.88-5.35 0-2.36.77-4.44.76-2.08 2.19-3.62t3.49-2.44q2.06-.91 4.64-.91 2.19 0 4.03.7 1.85.7 3.17 2.04 1.33 1.34 2.09 3.28.75 1.95.75 4.45 0 1.26-.27 1.7t-1.04.44m21.9-12.25h4.38l-9.15 23.09h-5.04l-9.16-23.09h4.59q.63 0 1.05.3.41.29.55.74l4.45 12.33q.36 1.08.63 2.12.27 1.03.47 2.06.23-1.03.5-2.06.27-1.04.65-2.12l4.55-12.33q.15-.45.56-.74.4-.3.97-.3m39.66-4.63h-14.44v9.02h11.38v4.66h-11.38v9.2h14.44v4.84H291.1v-32.53h20.52zm20.91 4.63h4.38l-9.15 23.09h-5.04l-9.16-23.09h4.59q.63 0 1.05.3.41.29.55.74l4.45 12.33q.36 1.08.63 2.12.27 1.03.47 2.06.23-1.03.5-2.06.27-1.04.65-2.12l4.55-12.33q.15-.45.56-.74.4-.3.97-.3m11.72 8.89h10.48q0-1.08-.3-2.03-.3-.96-.91-1.68t-1.54-1.14q-.94-.41-2.17-.41-2.41 0-3.79 1.37-1.39 1.37-1.77 3.89m14.17 3.36h-14.28q.13 1.77.63 3.07.49 1.29 1.3 2.13.81.85 1.92 1.26 1.12.42 2.47.42t2.33-.31q.98-.32 1.71-.7t1.28-.7q.55-.31 1.07-.31.7 0 1.03.51l1.6 2.03q-.92 1.08-2.07 1.81t-2.39 1.17q-1.25.44-2.55.62-1.29.18-2.51.18-2.4 0-4.47-.8t-3.6-2.36q-1.53-1.57-2.41-3.87-.88-2.31-.88-5.35 0-2.36.77-4.44.76-2.08 2.19-3.62t3.49-2.44q2.06-.91 4.64-.91 2.19 0 4.03.7 1.85.7 3.17 2.04 1.33 1.34 2.09 3.28.75 1.95.75 4.45 0 1.26-.27 1.7t-1.04.44m10.29-11.23.38 1.82q.7-.7 1.47-1.29.78-.6 1.65-1.02.86-.41 1.85-.65t2.16-.24q1.89 0 3.35.65 1.47.64 2.45 1.8.97 1.16 1.48 2.76.51 1.61.51 3.55v14.69h-5.56v-14.69q0-2.12-.97-3.28t-2.95-1.16q-1.44 0-2.7.66-1.26.65-2.38 1.77v16.7h-5.56v-23.09h3.4q1.08 0 1.42 1.02m28.26 22.43q-3.02 0-4.63-1.7t-1.61-4.69v-12.89h-2.36q-.45 0-.76-.29-.32-.3-.32-.88v-2.21l3.71-.6 1.17-6.3q.12-.45.43-.7.32-.25.81-.25h2.88v7.27h6.17v3.96h-6.17v12.51q0 1.08.53 1.69.53.6 1.45.6.52 0 .87-.12.35-.13.6-.26.26-.13.47-.26.2-.12.4-.12.25 0 .41.12.15.13.33.37l1.67 2.7q-1.22 1.02-2.79 1.53-1.58.52-3.26.52m-257.99 25.92h-14.44v9.02h11.38v4.66h-11.38v9.2h14.44v4.84h-20.52v-32.53h20.52zm9.29 5.65.39 1.82q.69-.7 1.47-1.29.78-.6 1.64-1.02.87-.41 1.86-.65t2.16-.24q1.89 0 3.35.65 1.46.64 2.44 1.8t1.49 2.76q.5 1.61.5 3.55v14.69h-5.55v-14.69q0-2.12-.97-3.28-.97-1.15-2.95-1.15-1.44 0-2.7.65t-2.38 1.77v16.7h-5.56v-23.09h3.4q1.08 0 1.41 1.02m28.26 22.43q-3.01 0-4.62-1.7t-1.61-4.69v-12.89h-2.36q-.45 0-.77-.3-.31-.29-.31-.87v-2.21l3.71-.6 1.17-6.3q.11-.45.43-.7.31-.25.81-.25h2.88v7.27h6.16v3.96h-6.16v12.51q0 1.08.53 1.68.53.61 1.45.61.52 0 .87-.12.34-.13.6-.26t.46-.26q.21-.12.41-.12.25 0 .4.12.16.13.34.37l1.67 2.7q-1.22 1.02-2.79 1.53-1.58.52-3.27.52m13.44-14.56h10.48q0-1.08-.3-2.03-.31-.96-.91-1.68-.61-.72-1.54-1.14-.94-.41-2.18-.41-2.4 0-3.79 1.37-1.38 1.37-1.76 3.89m14.17 3.36h-14.29q.14 1.77.63 3.07.5 1.29 1.31 2.13.81.85 1.92 1.26 1.12.42 2.47.42t2.33-.31q.97-.32 1.71-.7.73-.38 1.28-.7.55-.31 1.07-.31.69 0 1.03.51l1.6 2.03q-.92 1.08-2.07 1.81t-2.4 1.17-2.54.62-2.51.18q-2.41 0-4.48-.8t-3.6-2.36q-1.53-1.57-2.4-3.87-.88-2.31-.88-5.35 0-2.36.76-4.44.77-2.08 2.2-3.62t3.49-2.44q2.05-.91 4.64-.91 2.18 0 4.03.7 1.84.7 3.17 2.04t2.08 3.28q.76 1.95.76 4.45 0 1.26-.27 1.7t-1.04.44m10.37-10.85.34 2.61q1.08-2.07 2.57-3.25 1.48-1.18 3.51-1.18 1.59 0 2.56.7l-.36 4.16q-.11.4-.32.57-.22.17-.58.17-.34 0-1-.11t-1.29-.11q-.93 0-1.65.27t-1.29.77q-.57.51-1.01 1.23t-.82 1.64v14.22h-5.56v-23.09h3.26q.86 0 1.19.31.34.3.45 1.09m44.22-6.03h-14.45v9.02h11.39v4.66h-11.39v9.2h14.45v4.84h-20.52v-32.53h20.52zm20.9 4.63h4.39l-9.16 23.09h-5.04l-9.16-23.09h4.59q.63 0 1.05.3.41.29.55.74l4.45 12.33q.36 1.08.63 2.12.27 1.03.48 2.07.22-1.04.49-2.07.27-1.04.65-2.12l4.55-12.33q.16-.45.56-.74.41-.3.97-.3m11.72 8.89h10.49q0-1.08-.31-2.03-.3-.96-.91-1.68t-1.54-1.14q-.93-.41-2.17-.41-2.41 0-3.79 1.37-1.39 1.37-1.77 3.89m14.18 3.36h-14.29q.13 1.77.63 3.07.49 1.29 1.3 2.13.81.85 1.93 1.26 1.11.42 2.46.42t2.33-.31q.98-.32 1.71-.7t1.28-.7q.55-.31 1.07-.31.7 0 1.04.51l1.59 2.03q-.92 1.08-2.07 1.81-1.14.73-2.39 1.17t-2.54.62q-1.3.18-2.51.18-2.41 0-4.48-.8t-3.6-2.36q-1.53-1.57-2.41-3.87-.88-2.31-.88-5.35 0-2.36.77-4.44.76-2.08 2.19-3.62t3.49-2.44q2.06-.91 4.65-.91 2.18 0 4.02.7 1.85.7 3.18 2.04 1.32 1.34 2.08 3.28.75 1.95.75 4.45 0 1.26-.27 1.7t-1.03.44m10.28-11.23.38 1.82q.7-.7 1.48-1.29.77-.6 1.64-1.02.86-.41 1.85-.65t2.16-.24q1.89 0 3.36.65 1.46.64 2.44 1.8t1.48 2.76q.51 1.61.51 3.55v14.69h-5.56v-14.69q0-2.12-.97-3.28-.96-1.15-2.94-1.15-1.44 0-2.7.65t-2.39 1.77v16.7h-5.56v-23.09h3.4q1.08 0 1.42 1.02m28.26 22.43q-3.02 0-4.62-1.7-1.61-1.7-1.61-4.69v-12.89h-2.37q-.45 0-.76-.3-.32-.29-.32-.87v-2.21l3.72-.6 1.17-6.3q.11-.45.42-.7.32-.25.81-.25h2.88v7.27h6.17v3.96h-6.17v12.51q0 1.08.53 1.68.53.61 1.45.61.52 0 .87-.12.35-.13.61-.26t.46-.26q.2-.12.4-.12.25 0 .41.12.16.13.34.37l1.66 2.7q-1.21 1.02-2.79 1.53-1.57.52-3.26.52m26.93-32.89v32.53h-6.07v-32.53zm11.95 32.53h-5.56v-23.09h3.4q1.08 0 1.42 1.02l.36 1.71q.6-.68 1.27-1.24.66-.56 1.42-.97.75-.4 1.62-.64.86-.24 1.9-.24 2.18 0 3.59 1.19 1.4 1.18 2.1 3.14.54-1.15 1.35-1.97t1.78-1.34q.96-.52 2.06-.77 1.09-.25 2.19-.25 1.91 0 3.4.59 1.48.59 2.49 1.71 1.02 1.13 1.55 2.74.52 1.63.52 3.72v14.69h-5.55v-14.69q0-2.21-.97-3.32t-2.84-1.11q-.85 0-1.58.29t-1.28.84q-.56.55-.87 1.38-.32.84-.32 1.92v14.69h-5.58v-14.69q0-2.32-.93-3.38-.93-1.05-2.73-1.05-1.22 0-2.26.59-1.05.6-1.95 1.63zm44.32-5.96v-3.9q-2.4.12-4.05.42-1.64.31-2.63.78t-1.42 1.1q-.42.63-.42 1.37 0 1.46.86 2.1.87.62 2.26.62 1.71 0 2.96-.61 1.25-.62 2.44-1.88m-11.74-12.13-.99-1.78q3.98-3.64 9.58-3.64 2.03 0 3.63.66 1.59.67 2.7 1.85 1.1 1.18 1.67 2.82.58 1.64.58 3.6v14.58h-2.52q-.79 0-1.22-.24-.43-.23-.67-.95l-.5-1.67q-.88.79-1.71 1.39-.83.59-1.73 1-.9.4-1.92.62-1.03.21-2.27.21-1.46 0-2.7-.39-1.23-.4-2.13-1.19-.9-.78-1.4-1.95-.49-1.17-.49-2.72 0-.88.29-1.75.29-.86.96-1.65.66-.79 1.72-1.49 1.05-.7 2.6-1.21 1.54-.52 3.58-.85 2.05-.32 4.68-.39v-1.35q0-2.32-.99-3.43t-2.85-1.11q-1.35 0-2.24.31t-1.57.71l-1.22.71q-.55.31-1.23.31-.58 0-.99-.3-.4-.31-.65-.71m30.82 5.98q1.04 0 1.8-.28.77-.28 1.28-.77.5-.5.76-1.19.26-.7.26-1.53 0-1.71-1.02-2.72-1.03-1-3.08-1-2.04 0-3.07 1-1.02 1.01-1.02 2.72 0 .8.26 1.5t.76 1.21q.51.5 1.29.78.77.28 1.78.28m6.28 13.14q0-.67-.4-1.1-.41-.42-1.11-.66-.69-.24-1.63-.35-.93-.11-1.98-.17-1.04-.05-2.16-.1-1.11-.05-2.17-.18-.92.52-1.5 1.22-.57.69-.57 1.61 0 .61.31 1.14.3.53.96.91.67.38 1.72.6 1.06.21 2.59.21 1.55 0 2.68-.23 1.12-.24 1.86-.66.73-.41 1.06-.99.34-.57.34-1.25m-1.1-23.33h6.64v2.07q0 .99-1.2 1.22l-2.07.38q.48 1.19.48 2.61 0 1.71-.69 3.09-.69 1.39-1.9 2.35-1.22.97-2.87 1.5t-3.57.53q-.67 0-1.3-.07t-1.24-.18q-1.08.66-1.08 1.46 0 .7.64 1.03t1.7.46 2.41.17q1.35.03 2.77.15 1.41.11 2.76.39t2.41.89q1.06.6 1.7 1.65t.64 2.69q0 1.53-.75 2.97-.76 1.44-2.18 2.57-1.43 1.12-3.51 1.81-2.09.68-4.74.68-2.61 0-4.55-.5-1.93-.51-3.21-1.35-1.29-.85-1.92-1.95t-.63-2.3q0-1.61.98-2.71.98-1.09 2.69-1.74-.92-.47-1.46-1.26t-.54-2.07q0-.52.19-1.07t.56-1.09.94-1.02q.56-.49 1.32-.87-1.75-.94-2.75-2.52t-1-3.69q0-1.71.68-3.09.69-1.39 1.92-2.37 1.22-.97 2.9-1.49 1.67-.52 3.65-.52 1.49 0 2.79.3 1.31.31 2.39.89m14.53 8.1h10.49q0-1.08-.31-2.03-.3-.96-.91-1.68-.6-.72-1.54-1.14-.93-.41-2.17-.41-2.41 0-3.79 1.37t-1.77 3.89m14.18 3.36h-14.29q.14 1.77.63 3.07.5 1.29 1.31 2.13.81.85 1.92 1.26 1.11.42 2.46.42t2.33-.31q.98-.32 1.71-.7t1.28-.7q.56-.31 1.07-.31.7 0 1.04.51l1.6 2.03q-.93 1.08-2.07 1.81-1.15.73-2.4 1.17t-2.54.62q-1.3.18-2.51.18-2.41 0-4.48-.8t-3.6-2.36q-1.53-1.57-2.41-3.87-.87-2.31-.87-5.35 0-2.36.76-4.44.77-2.08 2.19-3.62 1.43-1.54 3.49-2.44 2.06-.91 4.65-.91 2.18 0 4.03.7 1.84.7 3.17 2.04t2.08 3.28q.75 1.95.75 4.45 0 1.26-.27 1.7t-1.03.44"/></svg>