<svg xmlns="http://www.w3.org/2000/svg" xmlns:xlink="http://www.w3.org/1999/xlink" viewBox="0,0,256,256" width="48px" height="48px" fill-rule="nonzero"><g fill="#ffffff" fill-rule="nonzero" stroke="none" stroke-width="1" stroke-linecap="butt" stroke-linejoin="miter" stroke-miterlimit="10" stroke-dasharray="" stroke-dashoffset="0" font-family="none" font-weight="none" font-size="none" text-anchor="none" style="mix-blend-mode: normal"><g transform="scale(5.33333,5.33333)"><path d="M20,2c-1.64497,0 -3,1.35503 -3,3v2h-13c-0.36064,-0.0051 -0.69608,0.18438 -0.87789,0.49587c-0.18181,0.3115 -0.18181,0.69676 0,1.00825c0.18181,0.3115 0.51725,0.50097 0.87789,0.49587h13.83203c0.10799,0.01785 0.21818,0.01785 0.32617,0h11.67383c0.10799,0.01785 0.21818,0.01785 0.32617,0h13.8418c0.36064,0.0051 0.69608,-0.18438 0.87789,-0.49587c0.18181,-0.3115 0.18181,-0.69676 0,-1.00825c-0.18181,-0.3115 -0.51725,-0.50097 -0.87789,-0.49587h-13v-2c0,-1.64497 -1.35503,-3 -3,-3zM20,4h8c0.56503,0 1,0.43497 1,1v2h-10v-2c0,-0.56503 0.43497,-1 1,-1zM6.98047,10.98633c-0.28253,0.00226 -0.55092,0.12392 -0.73884,0.3349c-0.18792,0.21099 -0.27782,0.49161 -0.24749,0.77252l2.66992,28.36914c0.23665,2.56735 2.39721,4.53711 4.97656,4.53711h20.71875c2.57935,0 4.73992,-1.96976 4.97656,-4.53711v-0.00195l2.66992,-28.36719c0.05178,-0.55013 -0.35222,-1.03807 -0.90234,-1.08984c-0.55013,-0.05178 -1.03807,0.35222 -1.08984,0.90234l-2.66992,28.36914c0,0.0013 0,0.0026 0,0.00391c-0.14426,1.57171 -1.40438,2.7207 -2.98437,2.7207h-20.71875c-1.58,0 -2.84011,-1.149 -2.98437,-2.7207c0,-0.0013 0,-0.0026 0,-0.00391l-2.66992,-28.36914c-0.04205,-0.52303 -0.48116,-0.92463 -1.00586,-0.91992z"></path></g></g></svg>